<svg version="1.2" xmlns="http://www.w3.org/2000/svg" viewBox="0 0 612 792" width="612" height="792">
	<title>Logo Olson</title>
	<defs>
		<linearGradient id="g1" x2="1" gradientUnits="userSpaceOnUse" gradientTransform="matrix(535.446,0,0,490.03,7,151)">
			<stop offset="0" stop-color="#ec4445"/>
			<stop offset="1" stop-color="#aa1d33"/>
		</linearGradient>
		<linearGradient id="g2" x2="1" gradientUnits="userSpaceOnUse" gradientTransform="matrix(535.446,0,0,490.03,7,151)">
			<stop offset="0" stop-color="#ec4445"/>
			<stop offset="1" stop-color="#aa1d33"/>
		</linearGradient>
		<linearGradient id="g3" x2="1" gradientUnits="userSpaceOnUse" gradientTransform="matrix(-239.536,138.296,-132.788,-229.995,296.01,339.072)">
			<stop offset="0" stop-color="#ffffff" stop-opacity=".45"/>
			<stop offset="1" stop-color="#000000"/>
		</linearGradient>
		<linearGradient id="g4" x2="1" gradientUnits="userSpaceOnUse" gradientTransform="matrix(138.57,0,0,150.431,313.3,206.545)">
			<stop offset="0" stop-color="#ffffff"/>
			<stop offset="1" stop-color="#000000"/>
		</linearGradient>
		<linearGradient id="g5" x2="1" gradientUnits="userSpaceOnUse" gradientTransform="matrix(70.497,0,0,124.995,466.497,220.488)">
			<stop offset="0" stop-color="#ffffff"/>
			<stop offset="1" stop-color="#000000"/>
		</linearGradient>
	</defs>
	<style>
		.s0 { fill: #000001 } 
		.s1 { fill: url(#g1) } 
		.s2 { fill: url(#g2) } 
		.s3 { opacity: .5;mix-blend-mode: multiply;fill: url(#g3) } 
		.s4 { fill: #ce1f3e } 
		.s5 { opacity: .5;mix-blend-mode: multiply;fill: url(#g4) } 
		.s6 { opacity: .5;mix-blend-mode: multiply;fill: url(#g5) } 
	</style>
	<g id="Capa 1">
		<g id="&lt;Group&gt;">
			<g id="&lt;Group&gt;">
				<g id="&lt;Group&gt;">
				</g>
				<g id="&lt;Group&gt;">
				</g>
				<g id="&lt;Group&gt;">
				</g>
				<path id="&lt;Path&gt;" class="s0" d=""/>
			</g>
		</g>
		<g id="&lt;Group&gt;">
		</g>
		<g id="&lt;Group&gt;">
			<g id="&lt;Group&gt;">
			</g>
			<g id="&lt;Group&gt;">
			</g>
		</g>
		<g id="&lt;Group&gt;">
			<g id="&lt;Group&gt;">
				<g id="&lt;Group&gt;">
					<path id="&lt;Compound Path&gt;" class="s1" d="m274.3 641q-77.8 0-138-31.4-60.3-31.5-94.8-86.9c-23-37-34.5-79.1-34.5-126.2 0-47.8 11.5-90.2 34.5-127.1q34.5-55.5 94.8-87 60.2-31.4 138-31.4 77.7 0 138.4 31.4 60.7 31.5 95.2 87 34.6 55.4 34.5 127.1 0.1 70.7-34.5 126.2-34.5 55.4-95.2 86.9-60.7 31.4-138.4 31.4zm0-131.9q27.9 0 50.2-13.1 22.3-13.1 35.8-38.8 13.6-25.8 13.6-61.6 0-36.7-13.6-61.2-13.5-24.4-35.8-37.5-22.3-13.1-50.2-13.1-28 0-50.2 13.1-22.3 13.1-35.9 37.5-13.5 24.5-13.5 61.2 0 35.8 13.5 61.6 13.6 25.7 35.9 38.8 22.2 13.1 50.2 13.1z"/>
				</g>
				<g id="&lt;Group&gt;">
					<path id="&lt;Compound Path&gt;" class="s2" d="m274.3 641q-77.8 0-138-31.4-60.3-31.5-94.8-86.9c-23-37-34.5-79.1-34.5-126.2 0-47.8 11.5-90.2 34.5-127.1q34.5-55.5 94.8-87 60.2-31.4 138-31.4 77.7 0 138.4 31.4 60.7 31.5 95.2 87 34.6 55.4 34.5 127.1 0.1 70.7-34.5 126.2-34.5 55.4-95.2 86.9-60.7 31.4-138.4 31.4zm0-131.9q27.9 0 50.2-13.1 22.3-13.1 35.8-38.8 13.6-25.8 13.6-61.6 0-36.7-13.6-61.2-13.5-24.4-35.8-37.5-22.3-13.1-50.2-13.1-28 0-50.2 13.1-22.3 13.1-35.9 37.5-13.5 24.5-13.5 61.2 0 35.8 13.5 61.6 13.6 25.7 35.9 38.8 22.2 13.1 50.2 13.1z"/>
				</g>
				<path id="&lt;Path&gt;" class="s0" d=""/>
				<path id="&lt;Path&gt;" class="s3" d="m174.9 391.9h-167.8c0 0-4.7-124 108.7-197.3l96.8 110.3c0 0-37.4 28.3-37.7 87z"/>
			</g>
			<path id="&lt;Compound Path&gt;" class="s4" d="m605.5 423.2c0 0-97.8-81.8-148.6-228.8-50.8 147-148.6 228.8-148.6 228.8 24.9-8.9 46.6-15.4 65.2-20-0.9 20.6-5.1 38.7-13.2 54q-13.5 25.7-35.8 38.8-22.3 13.1-50.2 13.1-28 0-50.2-13.1-22.3-13.1-35.9-38.8-13.5-25.8-13.5-61.6c0-1.3 0.2-2.5 0.2-3.7h-167.8c0 1.5-0.1 3-0.1 4.6 0 47.1 11.5 89.2 34.5 126.2q34.5 55.4 94.8 86.9 60.2 31.4 138 31.4 77.7 0 138.4-31.4 60.7-31.5 95.2-86.9c21.9-35.1 33.2-74.8 34.3-119 18.2 4.6 39.2 10.9 63.3 19.5z"/>
			<path id="&lt;Path&gt;" class="s5" d="m313.3 291.5l138.6-85c0 0-30.6 83.9-82.9 150.5 0 0-10.3-46.5-55.7-65.5z"/>
			<path id="&lt;Path&gt;" class="s6" d="m466.5 220.5c0 0 35.5 81 70.5 125 0 0-15.5-81-70.5-125z"/>
		</g>
		<g id="&lt;Group&gt;">
		</g>
	</g>
</svg>