<svg version="1.2" xmlns="http://www.w3.org/2000/svg" viewBox="0 0 612 792" width="1300" height="1300">
	<title>Logo Olson</title>
	<defs>
		<linearGradient id="g1" x2="1" gradientUnits="userSpaceOnUse" gradientTransform="matrix(236.737,0,0,216.658,30,288)">
			<stop offset="0" stop-color="#ec4445"/>
			<stop offset="1" stop-color="#aa1d33"/>
		</linearGradient>
		<linearGradient id="g2" x2="1" gradientUnits="userSpaceOnUse" gradientTransform="matrix(236.737,0,0,216.658,30,288)">
			<stop offset="0" stop-color="#ec4445"/>
			<stop offset="1" stop-color="#aa1d33"/>
		</linearGradient>
		<linearGradient id="g3" x2="1" gradientUnits="userSpaceOnUse" gradientTransform="matrix(-105.906,61.145,-58.71,-101.688,157.781,371.152)">
			<stop offset="0" stop-color="#ffffff" stop-opacity=".45"/>
			<stop offset="1" stop-color="#000000"/>
		</linearGradient>
		<linearGradient id="g4" x2="1" gradientUnits="userSpaceOnUse" gradientTransform="matrix(61.266,0,0,66.51,165.425,312.558)">
			<stop offset="0" stop-color="#ffffff"/>
			<stop offset="1" stop-color="#000000"/>
		</linearGradient>
		<linearGradient id="g5" x2="1" gradientUnits="userSpaceOnUse" gradientTransform="matrix(31.169,0,0,55.264,233.158,318.723)">
			<stop offset="0" stop-color="#ffffff"/>
			<stop offset="1" stop-color="#000000"/>
		</linearGradient>
	</defs>
	<style>
		tspan { white-space:pre } 
		.s0 { fill: #000001 } 
		.s1 { fill: url(#g1) } 
		.s2 { fill: url(#g2) } 
		.s3 { opacity: .5;mix-blend-mode: multiply;fill: url(#g3) } 
		.s4 { fill: #ce1f3e } 
		.s5 { opacity: .5;mix-blend-mode: multiply;fill: url(#g4) } 
		.s6 { opacity: .5;mix-blend-mode: multiply;fill: url(#g5) } 
		.s7 { fill: #403f40 } 
		.t8 { font-size: 12px;fill: #43454b;font-weight: 300;font-family: "Montserrat Roman" } 
	</style>
	<g id="Capa 1">
		<g id="&lt;Group&gt;">
			<g id="&lt;Group&gt;">
				<g id="&lt;Group&gt;">
				</g>
				<g id="&lt;Group&gt;">
				</g>
				<g id="&lt;Group&gt;">
				</g>
				<path id="&lt;Path&gt;" class="s0" d=""/>
			</g>
		</g>
		<g id="&lt;Group&gt;">
		</g>
		<g id="&lt;Group&gt;">
			<g id="&lt;Group&gt;">
			</g>
			<g id="&lt;Group&gt;">
			</g>
		</g>
		<g id="&lt;Group&gt;">
			<g id="&lt;Group&gt;">
				<g id="&lt;Group&gt;">
					<path id="&lt;Compound Path&gt;" class="s1" d="m148.2 504.7q-34.4 0-61-13.9-26.7-13.9-42-38.5-15.2-24.5-15.2-55.8 0-31.6 15.2-56.2 15.3-24.5 42-38.4 26.6-13.9 61-13.9 34.3 0 61.2 13.9 26.8 13.9 42.1 38.4 15.2 24.6 15.2 56.2 0 31.3-15.2 55.8-15.3 24.6-42.1 38.5-26.9 13.9-61.2 13.9zm0-58.4q12.3 0 22.2-5.8 9.8-5.7 15.8-17.1 6-11.4 6-27.3 0-16.2-6-27-6-10.8-15.8-16.6-9.9-5.8-22.2-5.8-12.4 0-22.2 5.8-9.9 5.8-15.9 16.6-6 10.8-5.9 27-0.1 15.9 5.9 27.3 6 11.4 15.9 17.1 9.8 5.8 22.2 5.8z"/>
				</g>
				<g id="&lt;Group&gt;">
					<path id="&lt;Compound Path&gt;" class="s2" d="m148.2 504.7q-34.4 0-61-13.9-26.7-13.9-42-38.5-15.2-24.5-15.2-55.8 0-31.6 15.2-56.2 15.3-24.5 42-38.4 26.6-13.9 61-13.9 34.3 0 61.2 13.9 26.8 13.9 42.1 38.4 15.2 24.6 15.2 56.2 0 31.3-15.2 55.8-15.3 24.6-42.1 38.5-26.9 13.9-61.2 13.9zm0-58.4q12.3 0 22.2-5.8 9.8-5.7 15.8-17.1 6-11.4 6-27.3 0-16.2-6-27-6-10.8-15.8-16.6-9.9-5.8-22.2-5.8-12.4 0-22.2 5.8-9.9 5.8-15.9 16.6-6 10.8-5.9 27-0.1 15.9 5.9 27.3 6 11.4 15.9 17.1 9.8 5.8 22.2 5.8z"/>
				</g>
				<path id="&lt;Path&gt;" class="s0" d=""/>
				<path id="&lt;Path&gt;" class="s3" d="m104.2 394.5h-74.1c0 0-2.1-54.8 48-87.2l42.8 48.7c0 0-16.5 12.5-16.7 38.5z"/>
			</g>
			<path id="&lt;Compound Path&gt;" class="s4" d="m294.6 408.4c0 0-43.2-36.2-65.7-101.2-22.4 65-65.7 101.2-65.7 101.2 11-4 20.6-6.8 28.8-8.9-0.4 9.1-2.2 17.1-5.8 23.9q-6 11.4-15.8 17.1-9.9 5.8-22.2 5.8-12.4 0-22.2-5.8-9.9-5.7-15.9-17.1-6-11.4-5.9-27.3c0-0.5 0-1 0-1.6h-74.1c0 0.7-0.1 1.3-0.1 2q0 31.3 15.2 55.8 15.3 24.6 42 38.5 26.6 13.9 61 13.9 34.3 0 61.2-13.9 26.8-13.9 42.1-38.5c9.6-15.5 14.6-33 15.1-52.6 8.1 2.1 17.4 4.8 28 8.7z"/>
			<path id="&lt;Path&gt;" class="s5" d="m165.4 350.1l61.3-37.5c0 0-13.5 37-36.6 66.5 0 0-4.6-20.6-24.7-29z"/>
			<path id="&lt;Path&gt;" class="s6" d="m233.2 318.7c0 0 15.7 35.8 31.1 55.3 0 0-6.8-35.8-31.1-55.3z"/>
		</g>
		<g id="&lt;Group&gt;">
			<path id="&lt;Compound Path&gt;" class="s7" d="m369.2 351q-4.7-4.5-11.1-6.9-6.4-2.5-13.9-2.5-7.6 0-14 2.5-6.3 2.4-11 6.9-4.7 4.5-7.3 10.5-2.7 6-2.7 13.1 0 7.2 2.7 13.2 2.6 6.1 7.3 10.6 4.7 4.5 11.1 6.9 6.4 2.5 13.9 2.5 7.5 0 13.9-2.5 6.4-2.4 11.1-6.9 4.7-4.5 7.3-10.5 2.6-6 2.6-13.3 0-7.2-2.6-13.2-2.7-6-7.3-10.4zm-9.4 31.2q-1.3 3.3-3.5 5.7-2.3 2.4-5.4 3.7-3.1 1.3-6.7 1.3-3.6 0-6.7-1.3-3.1-1.3-5.5-3.7-2.3-2.4-3.6-5.7-1.2-3.3-1.2-7.5 0-4.2 1.2-7.5 1.3-3.3 3.6-5.7 2.4-2.4 5.5-3.7 3.1-1.3 6.7-1.3 3.6 0 6.7 1.3 3.1 1.3 5.4 3.7 2.2 2.4 3.5 5.7 1.4 3.3 1.4 7.5 0 4.2-1.4 7.5z"/>
			<path id="&lt;Path&gt;" class="s7" d="m404.7 339.1v67.4h-17v-67.4z"/>
			<path id="&lt;Path&gt;" class="s7" d="m451.9 380q-2.5-1.6-5.5-2.4-3.1-0.8-6.2-1.2-3.1-0.4-5.6-0.8-2.5-0.5-4.1-1.2-1.7-0.8-1.7-2.3 0-1.4 1.9-2.4 1.8-0.9 6.1-0.9 3.2 0 6.8 0.7 3.6 0.7 7.2 2.9l5.1-11.8q-3.6-2.1-8.9-3.2-5.2-1.1-10.3-1.1-7.8 0-13 2.2-5.3 2.2-8 5.9-2.8 3.7-2.8 8.4 0 4.2 1.6 6.9 1.5 2.7 4 4.3 2.6 1.5 5.7 2.4 3.2 0.8 6.2 1.2 3 0.4 5.6 0.8 2.6 0.3 4.2 1 1.5 0.7 1.5 2.1 0 1.6-1.7 2.6-1.6 0.9-6 0.9-4.4 0-8.9-1.2-4.6-1.3-8.1-3.4l-5.1 11.8q3.6 2.2 9.5 3.6 5.9 1.5 12.1 1.5 7.9 0 13.3-2.2 5.4-2.2 8.1-5.8 2.7-3.6 2.7-8.1 0-4.2-1.6-6.9-1.6-2.7-4.1-4.3z"/>
			<path id="&lt;Compound Path&gt;" class="s7" d="m503.7 359.6q-6.3-3.3-14.3-3.3-8 0-14.2 3.3-6.2 3.3-9.7 9-3.6 5.8-3.6 13.3 0 7.3 3.6 13.1 3.5 5.8 9.7 9 6.2 3.3 14.2 3.3 8 0 14.3-3.3 6.2-3.2 9.8-9 3.5-5.8 3.5-13.1 0-7.5-3.5-13.3-3.6-5.7-9.8-9zm-5.4 28.6q-1.4 2.7-3.7 4-2.3 1.4-5.2 1.4-2.9 0-5.2-1.4-2.2-1.3-3.6-4-1.4-2.7-1.4-6.4 0-3.8 1.4-6.4 1.4-2.5 3.6-3.9 2.3-1.4 5.2-1.4 2.9 0 5.2 1.4 2.3 1.4 3.7 3.9 1.4 2.6 1.4 6.4 0 3.7-1.4 6.4z"/>
			<path id="&lt;Path&gt;" class="s7" d="m574 365.9q-2.6-4.8-7.2-7.2-4.6-2.4-10.2-2.4-6.2 0-11 2.8-2.5 1.4-4.4 3.5v-5.4h-16.4v49.3h17.1v-23.7q0-4.2 1.3-6.7 1.2-2.6 3.5-3.8 2.2-1.2 5-1.2 3.6 0 5.7 2.4 2.1 2.4 2.1 7.6v25.4h17.2v-28.2q0-7.6-2.7-12.4z"/>
		</g>
		<text id="CAPITAL
" style="transform: matrix(3.017,0,0,3.017,323.841,450.589)" >
			<tspan x="0" y="0" class="t8" dx="0 5 5 5 5 5 5 5" >CAPITAL
</tspan>
		</text>
	</g>
</svg>